<?xml version="1.0" standalone="no"?>
<!DOCTYPE svg PUBLIC "-//W3C//DTD SVG 20010904//EN"
 "http://www.w3.org/TR/2001/REC-SVG-20010904/DTD/svg10.dtd">
<svg version="1.0" xmlns="http://www.w3.org/2000/svg"
 width="1079.000000pt" height="908.000000pt" viewBox="0 0 1079.000000 908.000000"
 preserveAspectRatio="xMidYMid meet">

<g transform="translate(0.000000,908.000000) scale(0.100000,-0.100000)"
fill="#000000" stroke="none">
<path d="M0 4540 l0 -4540 5395 0 5395 0 0 4540 0 4540 -5395 0 -5395 0 0
-4540z m5594 3910 c75 -29 136 -86 180 -169 84 -160 103 -362 67 -704 -25
-232 -26 -379 -6 -540 34 -278 143 -529 309 -713 25 -29 46 -55 46 -60 0 -4
-42 -50 -92 -103 -51 -53 -155 -182 -230 -286 -76 -105 -162 -224 -193 -265
-30 -41 -95 -131 -145 -200 -50 -69 -140 -192 -201 -275 -60 -82 -145 -198
-187 -256 -42 -58 -111 -153 -153 -210 -42 -57 -92 -126 -111 -154 -40 -56
-100 -191 -257 -570 -92 -221 -106 -242 -123 -179 -22 79 -49 284 -54 419 -9
226 25 600 76 828 11 49 20 101 20 116 0 34 -46 106 -77 120 -31 14 -108 14
-136 0 -12 -6 -174 -162 -359 -347 l-338 -336 -152 49 c-84 27 -159 55 -167
62 -12 10 71 97 507 533 287 286 522 526 522 533 0 14 -180 197 -195 197 -5 0
-269 -259 -585 -575 -317 -316 -582 -575 -591 -575 -27 0 -294 91 -308 105
-12 12 110 138 867 895 485 485 882 888 882 896 0 19 -172 194 -190 194 -8 0
-449 -435 -980 -966 -549 -550 -997 -990 -1038 -1021 -150 -112 -371 -196
-562 -214 -122 -11 -270 -2 -270 16 0 6 44 38 98 70 195 116 393 255 523 366
31 27 775 768 1655 1647 879 879 1616 1611 1636 1626 89 66 210 84 312 46z
m-1400 -216 c9 -3 16 -10 16 -15 0 -5 16 -43 35 -85 19 -41 35 -77 35 -79 0
-2 15 -36 34 -77 74 -162 86 -192 86 -220 0 -36 -20 -75 -54 -108 -21 -19 -31
-22 -44 -14 -25 16 -26 47 -2 69 11 10 20 30 20 44 -1 55 -21 71 -171 132 -79
32 -152 63 -161 69 -31 18 -49 12 -43 -13 4 -16 0 -29 -14 -41 -12 -11 -21
-26 -21 -35 0 -9 51 -67 113 -129 l112 -113 -29 -25 -29 -25 -112 110 c-61 61
-118 111 -125 111 -7 0 -21 -7 -30 -15 -19 -17 -45 -12 -54 11 -6 17 3 44 15
44 5 0 9 9 9 20 0 11 -3 20 -7 20 -15 0 -53 67 -53 92 0 17 16 43 44 74 38 43
45 47 60 35 17 -14 22 -51 8 -51 -5 0 -15 -11 -22 -25 -11 -20 -10 -28 4 -50
20 -30 46 -32 66 -5 8 11 20 20 28 20 7 0 16 8 19 18 4 9 17 27 30 39 27 26
20 28 177 -46 60 -28 111 -49 114 -46 5 5 -13 49 -79 185 l-36 75 19 28 c22
30 20 29 42 21z m-565 -460 c-28 -30 -36 -30 -66 -2 -30 28 -29 42 4 68 l28
22 28 -32 29 -32 -23 -24z m214 -162 l138 -138 -21 -27 c-12 -15 -27 -27 -33
-27 -17 0 -277 263 -277 280 0 12 37 50 49 50 4 0 68 -62 144 -138z m-225 -59
c34 -21 222 -204 222 -217 0 -14 -31 -46 -46 -46 -7 0 -42 30 -79 67 -98 98
-133 123 -170 123 -61 0 -108 -74 -85 -135 6 -16 49 -67 95 -115 47 -47 85
-90 85 -95 0 -15 -33 -45 -49 -45 -9 0 -101 86 -205 190 l-189 190 23 25 c13
14 28 25 34 25 6 0 43 -33 83 -72 l73 -72 0 40 c0 105 126 188 208 137z m5198
-88 c113 -15 154 -27 154 -44 0 -5 -17 -20 -37 -34 -137 -91 -298 -274 -377
-427 -43 -83 -51 -89 -81 -60 l-25 23 0 263 c0 199 3 264 13 272 27 23 202 26
353 7z m-656 -335 c3 -168 9 -314 14 -325 5 -11 58 -70 119 -132 83 -85 108
-117 103 -130 -4 -10 -44 -68 -89 -131 -77 -107 -156 -217 -245 -342 -21 -30
-90 -127 -154 -215 -159 -222 -164 -231 -183 -310 -9 -38 -20 -88 -25 -110 -5
-22 -17 -75 -25 -119 -19 -97 -33 -126 -49 -105 -6 8 -57 76 -114 151 -108
144 -147 184 -189 194 -23 6 -105 -11 -286 -60 -32 -9 -60 -16 -62 -16 -15 0
4 59 85 262 50 125 90 236 90 246 0 31 -26 85 -52 108 -43 39 -80 44 -339 44
-136 0 -250 3 -252 8 -3 4 284 296 637 650 l642 642 185 -2 184 -3 5 -305z
m-4837 98 c44 -22 -3 -74 -58 -64 -51 10 -98 -15 -120 -65 -17 -37 -17 -41 0
-78 29 -65 76 -103 133 -109 44 -4 53 -1 83 26 31 28 33 34 32 88 -2 84 41
128 65 67 23 -59 23 -75 6 -124 -61 -168 -268 -183 -371 -27 -24 35 -28 52
-28 107 0 57 4 72 30 108 57 80 153 110 228 71z m-248 -388 l139 -139 -24 -26
c-13 -14 -30 -23 -37 -20 -7 3 -20 8 -28 11 -11 5 -15 -1 -15 -26 0 -78 -79
-150 -164 -150 -36 0 -120 46 -158 86 -45 49 -68 101 -68 153 0 44 5 54 43 96
38 42 48 48 94 52 l51 5 -16 28 c-16 27 -15 29 8 49 14 11 27 20 30 21 3 0 68
-63 145 -140z m-371 -268 c71 -49 71 -50 -34 -157 -52 -53 -97 -100 -99 -106
-6 -19 34 -38 81 -39 40 0 51 5 77 33 30 31 36 49 32 96 -2 26 24 61 46 61 21
0 35 -50 28 -97 -8 -55 -63 -125 -118 -152 -81 -39 -154 -21 -230 56 -94 93
-89 209 14 296 61 53 133 56 203 9z m-420 -199 c38 -27 69 -96 61 -133 -7 -30
-7 -30 39 -30 43 0 50 -5 116 -66 38 -37 70 -71 70 -77 0 -17 -32 -47 -49 -47
-9 0 -41 23 -71 50 -30 28 -64 53 -77 56 -30 8 -77 -22 -143 -92 l-53 -55 34
-36 c19 -20 51 -52 72 -71 20 -19 37 -41 37 -50 0 -20 -29 -52 -48 -52 -19 0
-382 361 -382 380 0 17 175 194 225 228 52 35 117 33 169 -5z m4493 -550 c-6
-20 -105 -269 -166 -419 -22 -56 -41 -116 -41 -133 0 -73 53 -136 122 -147 22
-4 111 14 258 51 124 32 239 60 257 62 30 5 35 0 120 -112 48 -64 95 -127 103
-138 8 -12 41 -55 72 -95 32 -40 58 -81 58 -91 0 -37 -138 -409 -245 -661 -92
-217 -252 -536 -328 -657 -15 -24 -27 -45 -27 -48 0 -14 -132 -218 -234 -360
-45 -63 -170 -231 -175 -235 -3 -3 -45 -50 -93 -106 -226 -262 -545 -529 -813
-681 -191 -109 -413 -192 -635 -239 -132 -28 -99 -50 -429 280 -332 332 -311
299 -258 416 14 30 58 132 97 225 40 94 104 242 142 330 39 88 77 176 85 195
8 19 19 44 24 55 5 11 22 52 38 90 15 39 81 192 146 340 64 149 144 335 178
415 45 109 79 170 132 245 40 55 90 125 111 156 21 31 49 69 62 85 12 16 76
103 141 194 340 470 509 704 523 722 7 9 56 75 107 147 l95 131 289 0 c271 0
289 -1 284 -17z m-2625 -1413 c-4 -198 -1 -287 13 -424 l18 -173 -534 -535
c-343 -344 -547 -541 -569 -550 -19 -8 -48 -20 -63 -27 -37 -15 -119 -14 -154
1 -60 26 -133 78 -133 96 0 10 220 238 515 532 283 283 515 522 515 530 0 19
-173 190 -193 190 -8 0 -308 -294 -666 -653 -457 -458 -667 -661 -703 -681
-41 -23 -64 -29 -117 -30 -37 0 -82 5 -101 13 -48 20 -120 79 -120 99 0 9 232
249 515 532 283 283 515 522 515 530 0 20 -171 190 -191 190 -9 0 -278 -263
-600 -584 -321 -322 -602 -595 -624 -608 -33 -19 -55 -23 -125 -23 -75 0 -91
3 -132 27 -42 25 -88 70 -88 87 0 11 1589 1596 1603 1599 7 1 128 -36 268 -83
357 -120 524 -175 601 -198 109 -33 116 -29 347 199 108 106 199 194 202 194
3 0 4 -113 1 -250z m84 -2382 c57 -56 104 -109 104 -118 0 -8 -33 -65 -74
-125 -41 -61 -116 -173 -167 -250 -127 -194 -232 -352 -269 -405 -17 -25 -89
-133 -160 -240 -71 -107 -153 -222 -182 -254 -101 -114 -269 -221 -424 -269
-70 -22 -102 -26 -215 -27 -170 -1 -159 -2 -159 14 0 11 306 400 574 731 18
22 160 200 316 395 156 195 300 375 320 400 20 25 73 91 119 148 45 56 90 102
98 102 9 0 62 -46 119 -102z m379 -379 c43 -48 43 -46 -14 -189 -251 -630
-257 -642 -373 -721 -96 -66 -142 -82 -240 -83 -53 -1 -91 3 -98 10 -9 9 73
139 326 518 185 278 343 506 349 506 7 0 29 -18 50 -41z"/>
<path d="M7862 7199 c-53 -52 -55 -70 -6 -62 59 10 113 -15 146 -66 15 -25 28
-55 28 -67 0 -13 4 -25 9 -28 9 -6 71 61 71 76 0 14 -179 188 -193 188 -7 0
-31 -19 -55 -41z"/>
<path d="M7704 7037 c-48 -41 -214 -211 -214 -219 0 -4 43 -50 95 -103 78 -80
97 -95 112 -86 26 13 193 186 193 199 0 12 -24 22 -52 22 -30 0 -96 73 -104
115 -3 19 -1 49 5 66 6 18 9 34 7 36 -2 2 -21 -11 -42 -30z"/>
<path d="M2854 6821 c-62 -38 -64 -118 -5 -181 52 -56 95 -72 146 -54 22 7 40
14 41 14 1 0 9 18 19 39 22 50 15 80 -32 132 -63 70 -113 84 -169 50z"/>
<path d="M2532 6505 c-36 -30 -48 -75 -32 -116 7 -16 15 -29 19 -29 4 0 38 31
75 69 59 60 68 72 56 85 -20 25 -83 20 -118 -9z"/>
<path d="M2139 6302 c-39 -26 -139 -125 -139 -137 1 -15 108 -125 123 -125 16
0 142 128 151 154 10 29 -12 83 -44 106 -34 25 -57 25 -91 2z"/>
</g>
</svg>
